<?xml version="1.0" encoding="UTF-8"?>
<svg version="1.1" viewBox="0 0 1020 832" width="1280" height="1280" xmlns="http://www.w3.org/2000/svg">
<path transform="translate(285,84)" d="m0 0h94l1 3 13 1 14 7 8 2 16 8 8 6 12 6 8 6 6 4 7 6v2l4 2 9 6 7 6 7 8 8 8 3 6 9 11 9 16 5 8 8 16 3 7 2 6 3 11 3 7 2 6 4 13 2 5 2 6 6 14 2 7 2 5 2 6 3 11 3 7 2 7 2 5 2 7 2 5 2 7 2 5 2 7 2 5 2 6 4 13 2 5 2 6 5 10 3 11 2 5 2 6 3 11 3 6 2 7 2 5 2 7 3 11 2 2 2 12 6-2 5-5 10-9 6-3 13-12 8-5 9-9 9-7 8-6 14-13 9-6 7-7 10-8 6-4 8-8 5-4 7-4 5-4h161l1 1v258l-5 1-3-3-4-7-11-11-3-6-11-12-3-4-3-5-9-10-4-5-3-5-9-10-4-5-3-5-9-10-11-11-3-6-7-8-4 2-6 5-7 4-24 24h-5l-1 3-7 6-19 19h-5l-1 3-7 6-5 6-8 7-10 10-6 2-26 26-6 2-4 2h-107l-5-12-7-21-5-11-12-36-10-31-6-13-12-36-6-19-5-10-12-36-3-10-5-10-12-36-3-10-5-10-12-36-3-10-5-10-7-22-6-12-1-7-7-9-3-5-9-10-21-21-5-4-6-3-6-5-16-8-10-2v-2h-67l-2 2-13 2-3 2-11 3-10 6-3 3-6 3-10 9-4 5-5 4-6 2-3 3-2 6-11 11-1 2h-2l-2 7-4 8-4 5h-2l-1 10-3 4-3 7-2 7-3 6-1 14-1 4-2 1-1 27-1 4-2 1v34l2 1 1 3 1 28 2 2 2 17 3 7 2 7 2 6 4 10 6 11 6 9 7 10 4 6 9 10 4 3v2l4 2 9 6 11 7 9 6 12 6 1 1 10 2 3 2 9 2v2l13 1 3 1v2l27 1 2 3h39l1-3 22-1 5-2 1-1 15-1 5-3 10-2 2-2 9-1 8-7 5-2 9-7 3 1 5 13 2 6 3 11 3 7 2 6 3 11 3 7 2 6 3 11 3 5v4l-12 5-16 8-9 4-13 5-8 3-9 2-13 4-1 1-19 2v2l-16 1h-76l-12-1-4-2-18-2-14-3-9-2-33-11-19-9-17-9-6-3-6-5-6-3-10-9-5-2-28-28-3-6-9-10-3-6-6-8-6-9-9-17-4-12-5-11-8-24-3-13-2-10-1-8-2-3-1-27-2-7-1-2v-44l3-4 1-35 3-5 1-15 3-7 3-9 2-12 6-12 3-10 8-16 9-17 6-9 9-11 5-8 4-5h2l2-4 12-12h2l2-4 9-7 8-6 10-9 11-7 15-10 15-8 16-8 9-2 3-2 9-2 3-2 9-2 3-2 24-1z" fill="#88D9FD"/>
<path transform="translate(782,388)" d="m0 0h161l1 1v258l-5 1-3-3-4-7-11-11-3-6-11-12-3-4-3-5-9-10-4-5-3-5-9-10-4-5-3-5-9-10-11-11-3-6-7-8-4 2-6 5-7 4-24 24h-5l-1 3-7 6-19 19h-5l-1 3-7 6-5 6-8 7-10 10-6 2-26 26-6 2-4 2h-107l-5-12-7-21-5-11-10-31 2-4 10-8 8-6 13-11 14-11 17-14 9-7 12-9 2-2 9-6 7-7h3l1-5 8-7 10-8 6-4 9-9 9-7 8-6 14-13 9-6 7-7 10-8 6-4 8-8 5-4 7-4z" fill="#5AC5F6"/>
<path transform="translate(828,388)" d="m0 0h115v80l-2 4-2-30v-43l-1-3-6-2h-128l-9-3v-1l6-1z" fill="#89DAFE"/>
<path transform="translate(941,636)" d="m0 0h2v12l-5-1-1-5 3-5z" fill="#87D9FD"/>
<path transform="translate(749,413)" d="m0 0h5v3l-6 2-9 8h-2l2-4z" fill="#84D7FD"/>
<path transform="translate(725,433)" d="m0 0h4l-1 3-5 3-8 7h-2l2-4z" fill="#83D7FD"/>
<path transform="translate(701,453)" d="m0 0h5l-5 4-3 3h-2v2l-5 4h-2l2-4z" fill="#82D7FC"/>
<path transform="translate(677,473)" d="m0 0 4 1-10 8h-2l-2 4-3 1 2-4z" fill="#80D6FC"/>
<path transform="translate(707,636)" d="m0 0v3l-9 9-3-1 1-3 6-4z" fill="#85D8FD"/>
<path transform="translate(297,181)" d="m0 0 9 1-3 2-14 1-2 1 1-3z" fill="#5BC5F6"/>
<path transform="translate(738,609)" d="m0 0v3l-7 7h-3l1-4z" fill="#8DDAFD"/>
<path transform="translate(658,488)" d="m0 0 3 1-1 3-5 3-7 7-2-1 11-11z" fill="#8CDBFE"/>
<path transform="translate(776,393)" d="m0 0h3v2l-5 5h-4l1-3h2l1-3z" fill="#80D6FC"/>
<path transform="translate(657,489)" d="m0 0m-1 1m-1 1m-2 1 2 1-7 6 2-4zm-6 7m-2 1 2 1-2 3-3-1z" fill="#79D3FB"/>
<path transform="translate(920,624)" d="m0 0 5 2 4 6h-3l-6-7z" fill="#83D7FD"/>
</svg>
